Coordinates
version=1
nRows=26
nColumns=24
inDegrees=yes

Units are S.I. units (second, meters, Newtons, ...)
Angles are in degrees.

endheader
time	pelvis_tilt	pelvis_list	pelvis_rotation	pelvis_tx	pelvis_ty	pelvis_tz	hip_flexion_r	hip_adduction_r	hip_rotation_r	knee_angle_r	ankle_angle_r	subtalar_angle_r	mtp_angle_r	hip_flexion_l	hip_adduction_l	hip_rotation_l	knee_angle_l	ankle_angle_l	subtalar_angle_l	mtp_angle_l	lumbar_extension	lumbar_bending	lumbar_rotation
      4.67000000	     64.75966790	    -15.63926773	      4.56383856	      0.54300944	      0.95475289	     -0.23500097	     -0.67094725	    -11.09150947	    -25.72140099	    -60.00423256	    -17.72591221	      0.00000000	      0.00000000	     16.28502133	    -14.53139388	      5.89697038	   -106.66736057	    -28.43353988	      0.00000000	      0.00000000	      0.00000000	      0.00000000	      0.00000000
      4.68000000	     64.93540585	    -15.58989530	      4.56086022	      0.54221653	      0.95458164	     -0.23505720	     -0.59602202	    -11.09359449	    -26.11729349	    -59.87227297	    -17.76008853	      0.00000000	      0.00000000	     16.66910746	    -14.44570086	      6.02448265	   -106.06944373	    -28.01537244	      0.00000000	      0.00000000	      0.00000000	      0.00000000	      0.00000000
      4.69000000	     65.10670222	    -15.54160350	      4.57689270	      0.54156778	      0.95442764	     -0.23508034	     -0.54868192	    -11.06807178	    -26.48169834	    -59.70338339	    -17.78635349	      0.00000000	      0.00000000	     16.96131769	    -14.35482126	      6.18438247	   -105.25654510	    -27.58350706	      0.00000000	      0.00000000	      0.00000000	      0.00000000	      0.00000000
      4.70000000	     65.27549557	    -15.49454176	      4.61872658	      0.54104016	      0.95428018	     -0.23507390	     -0.53367444	    -11.01853565	    -26.82108489	    -59.49934920	    -17.80556347	      0.00000000	      0.00000000	     17.15469997	    -14.25494631	      6.37262716	   -104.24032771	    -27.14208180	      0.00000000	      0.00000000	      0.00000000	      0.00000000	      0.00000000
      4.71000000	     65.44408356	    -15.44795710	      4.68905058	      0.54062071	      0.95415644	     -0.23507372	     -0.55212621	    -10.95068396	    -27.13956194	    -59.26437604	    -17.81951124	      0.00000000	      0.00000000	     17.24605896	    -14.14422095	      6.58810622	   -103.03097588	    -26.68790882	      0.00000000	      0.00000000	      0.00000000	      0.00000000	      0.00000000
      4.72000000	     65.61237099	    -15.40068424	      4.78508151	      0.54033369	      0.95405418	     -0.23510743	     -0.60174968	    -10.87065917	    -27.43768785	    -59.00449325	    -17.83066566	      0.00000000	      0.00000000	     17.23594668	    -14.02196626	      6.83279165	   -101.63719367	    -26.21338647	      0.00000000	      0.00000000	      0.00000000	      0.00000000	      0.00000000
      4.73000000	     65.77518241	    -15.35257623	      4.90002622	      0.54023112	      0.95393220	     -0.23515750	     -0.67642483	    -10.78330854	    -27.71168041	    -58.72571526	    -17.84260231	      0.00000000	      0.00000000	     17.12801023	    -13.88673362	      7.10919341	   -100.06693197	    -25.71189727	      0.00000000	      0.00000000	      0.00000000	      0.00000000	      0.00000000
      4.74000000	     65.92239639	    -15.30476030	      5.02499150	      0.54034204	      0.95377122	     -0.23518754	     -0.76548981	    -10.69104316	    -27.95363149	    -58.43151333	    -17.86046259	      0.00000000	      0.00000000	     16.92905641	    -13.73522598	      7.41795900	    -98.32730114	    -25.18324612	      0.00000000	      0.00000000	      0.00000000	      0.00000000	      0.00000000
      4.75000000	     66.04153244	    -15.25810121	      5.15004252	      0.54061487	      0.95362460	     -0.23519242	     -0.85458444	    -10.59293184	    -28.15343313	    -58.12156517	    -17.89057323	      0.00000000	      0.00000000	     16.64917389	    -13.56284664	      7.75667125	    -96.42410004	    -24.63705059	      0.00000000	      0.00000000	      0.00000000	      0.00000000	      0.00000000
      4.76000000	     66.12110406	    -15.21146036	      5.26516033	      0.54096245	      0.95354693	     -0.23521429	     -0.92910671	    -10.48471119	    -28.30169629	    -57.79317466	    -17.93883766	      0.00000000	      0.00000000	     16.30034398	    -13.36587726	      8.11988980	    -94.36235235	    -24.09306744	      0.00000000	      0.00000000	      0.00000000	      0.00000000	      0.00000000
      4.77000000	     66.15337933	    -15.16304517	      5.36305437	      0.54135446	      0.95351052	     -0.23528260	     -0.97818166	    -10.36234844	    -28.39156224	    -57.44410355	    -18.00837297	      0.00000000	      0.00000000	     15.89310669	    -13.14459320	      8.50063130	    -92.14851533	    -23.57868740	      0.00000000	      0.00000000	      0.00000000	      0.00000000	      0.00000000
      4.78000000	     66.13648834	    -15.11362973	      5.44179570	      0.54180537	      0.95347439	     -0.23535737	     -0.99648522	    -10.22695518	    -28.41944441	    -57.07465088	    -18.09707790	      0.00000000	      0.00000000	     15.43375407	    -12.90505937	      8.89293408	    -89.79291114	    -23.12466142	      0.00000000	      0.00000000	      0.00000000	      0.00000000	      0.00000000
      4.79000000	     66.07530467	    -15.06664385	      5.50260796	      0.54232311	      0.95346141	     -0.23538222	     -0.98496490	    -10.08414911	    -28.38671372	    -56.68847306	    -18.19559791	      0.00000000	      0.00000000	     14.92483916	    -12.65703429	      9.29377252	    -87.31035680	    -22.76025415	      0.00000000	      0.00000000	      0.00000000	      0.00000000	      0.00000000
      4.80000000	     65.97950578	    -15.02585231	      5.54501563	      0.54290307	      0.95349740	     -0.23536305	     -0.95126282	     -9.93851818	    -28.30110388	    -56.29217430	    -18.28720062	      0.00000000	      0.00000000	     14.36785327	    -12.40890480	      9.70319568	    -84.71948851	    -22.50879407	      0.00000000	      0.00000000	      0.00000000	      0.00000000	      0.00000000
      4.81000000	     65.86011704	    -14.99472392	      5.56568690	      0.54353287	      0.95355483	     -0.23533726	     -0.90738499	     -9.79049069	    -28.17497698	    -55.89404768	    -18.35171172	      0.00000000	      0.00000000	     13.76533933	    -12.16413587	     10.12358275	    -82.04220033	    -22.38435312	      0.00000000	      0.00000000	      0.00000000	      0.00000000	      0.00000000
      4.82000000	     65.72713314	    -14.97645684	      5.56136631	      0.54419477	      0.95359376	     -0.23531338	     -0.86436118	     -9.63758618	    -28.02118045	    -55.50341070	    -18.37302691	      0.00000000	      0.00000000	     13.12186521	    -11.92232074	     10.55906945	    -79.30317845	    -22.38996422	      0.00000000	      0.00000000	      0.00000000	      0.00000000	      0.00000000
      4.83000000	     65.58832195	    -14.97254203	      5.53182608	      0.54486273	      0.95360138	     -0.23530679	     -0.82763553	     -9.47671032	    -27.84931075	    -55.13137866	    -18.34643849	      0.00000000	      0.00000000	     12.44463032	    -11.68305286	     11.01479583	    -76.52914971	    -22.51741041	      0.00000000	      0.00000000	      0.00000000	      0.00000000	      0.00000000
      4.84000000	     65.44899269	    -14.98252130	      5.48113036	      0.54550668	      0.95358698	     -0.23535675	     -0.79561644	     -9.30640419	    -27.66366920	    -54.79168009	    -18.28179268	      0.00000000	      0.00000000	     11.74397667	    -11.44856431	     11.49529190	    -73.74817783	    -22.74833608	      0.00000000	      0.00000000	      0.00000000	      0.00000000	      0.00000000
      4.85000000	     65.31290991	    -15.00606883	      5.41705931	      0.54611721	      0.95357724	     -0.23544884	     -0.76107702	     -9.12892632	    -27.46330413	    -54.49981271	    -18.20069989	      0.00000000	      0.00000000	     11.03353165	    -11.22341750	     12.00231502	    -70.98951855	    -23.05633396	      0.00000000	      0.00000000	      0.00000000	      0.00000000	      0.00000000
      4.86000000	     65.18301493	    -15.04323721	      5.34772796	      0.54670965	      0.95359985	     -0.23551378	     -0.71496482	     -8.94970700	    -27.24485593	    -54.27098985	    -18.12883202	      0.00000000	      0.00000000	     10.32970682	    -11.01255098	     12.53290839	    -68.28408658	    -23.40976558	      0.00000000	      0.00000000	      0.00000000	      0.00000000	      0.00000000
      4.87000000	     65.06105582	    -15.09232617	      5.27736933	      0.54728207	      0.95364541	     -0.23552898	     -0.65102079	     -8.77479833	    -27.00710139	    -54.11790562	    -18.08676262	      0.00000000	      0.00000000	      9.65019167	    -10.81956436	     13.07812496	    -65.66506230	    -23.77516128	      0.00000000	      0.00000000	      0.00000000	      0.00000000	      0.00000000
      4.88000000	     64.94808614	    -15.15025379	      5.20554554	      0.54779740	      0.95367925	     -0.23552622	     -0.56784539	     -8.61059884	    -26.75422348	    -54.04840943	    -18.08329815	      0.00000000	      0.00000000	      9.01164651	    -10.64596071	     13.62270156	    -63.16773309	    -24.12095222	      0.00000000	      0.00000000	      0.00000000	      0.00000000	      0.00000000
      4.89000000	     64.84630158	    -15.21470824	      5.12904952	      0.54823514	      0.95369108	     -0.23551594	     -0.46831225	     -8.46460610	    -26.49680344	    -54.06423892	    -18.11324105	      0.00000000	      0.00000000	      8.42789340	    -10.49116172	     14.14597079	    -60.82783919	    -24.42102014	      0.00000000	      0.00000000	      0.00000000	      0.00000000	      0.00000000
      4.90000000	     64.75945158	    -15.28365847	      5.04336683	      0.54861759	      0.95369885	     -0.23548304	     -0.35918657	     -8.34312357	    -26.25106687	    -54.16216655	    -18.15959131	      0.00000000	      0.00000000	      7.90955086	    -10.35301247	     14.62381197	    -58.67865897	    -24.65736101	      0.00000000	      0.00000000	      0.00000000	      0.00000000	      0.00000000
      4.91000000	     64.69142793	    -15.35382355	      4.94457903	      0.54896231	      0.95372094	     -0.23543082	     -0.25074399	     -8.24839996	    -26.03588866	    -54.33594724	    -18.19956057	      0.00000000	      0.00000000	      7.46460124	    -10.22872163	     15.03101856	    -56.74783748	    -24.82138676	      0.00000000	      0.00000000	      0.00000000	      0.00000000	      0.00000000
      4.92000000	     64.64542109	    -15.42129762	      4.83251741	      0.54925633	      0.95376542	     -0.23538305	     -0.15470463	     -8.17932154	    -25.86785913	    -54.57688089	    -18.21270395	      0.00000000	      0.00000000	      7.09904591	    -10.11627128	     15.34388159	    -55.05493589	    -24.91382255	      0.00000000	      0.00000000	      0.00000000	      0.00000000	      0.00000000
